<?xml version="1.0" encoding="UTF-8"?>
<svg id="merge-multiple-pdfs_400x240" xmlns="http://www.w3.org/2000/svg" width="400" height="240" viewBox="0 0 400 240">
  <g id="Group_310642" data-name="Group 310642" transform="translate(2203.786 657.114)">
    <path id="Path_101375" data-name="Path 101375" d="M496.822,484.562H423.016a11.967,11.967,0,0,1-11.952-11.983V370.891a11.967,11.967,0,0,1,11.951-11.984h58.761a13.132,13.132,0,0,1,9.261,3.826l5.785,5.758" transform="translate(-2589.584 -988.148)" fill="#fff"/>
    <path id="Path_101375-2" data-name="Path 101375" d="M427.321,486.307h-4.433a13.84,13.84,0,0,1-13.824-13.859V370.764a13.839,13.839,0,0,1,13.82-13.857h58.764a15,15,0,0,1,10.582,4.371l5.785,5.758a1.873,1.873,0,1,1-2.642,2.654l-5.785-5.758a11.259,11.259,0,0,0-7.94-3.28h-58.76a10.094,10.094,0,0,0-10.079,10.109V472.45a10.095,10.095,0,0,0,10.082,10.113h4.431a1.873,1.873,0,0,1,0,3.745Z" transform="translate(-2589.457 -988.021)" fill="#cacaca"/>
    <path id="Path_101375-3" data-name="Path 101375" d="M496.822,484.562H423.016a11.967,11.967,0,0,1-11.952-11.983V370.891a11.967,11.967,0,0,1,11.951-11.984h58.761a13.132,13.132,0,0,1,9.261,3.826l5.785,5.758" transform="translate(-2567.114 -972.232)" fill="#fff"/>
    <path id="Path_101375-4" data-name="Path 101375" d="M427.321,486.307h-4.433a13.84,13.84,0,0,1-13.824-13.859V370.764a13.839,13.839,0,0,1,13.82-13.857h58.764a15,15,0,0,1,10.582,4.371l5.785,5.758a1.873,1.873,0,1,1-2.642,2.654l-5.785-5.758a11.259,11.259,0,0,0-7.94-3.28h-58.76a10.094,10.094,0,0,0-10.079,10.109V472.45a10.095,10.095,0,0,0,10.082,10.113h4.431a1.873,1.873,0,0,1,0,3.745Z" transform="translate(-2566.987 -972.104)" fill="#cacaca"/>
    <path id="Path_101389" data-name="Path 101389" d="M334.923,421.086v33.664a11.968,11.968,0,0,1-11.949,11.981H245.429a11.968,11.968,0,0,1-11.949-11.981V353.069a11.968,11.968,0,0,1,11.949-11.98h58.756a13.134,13.134,0,0,1,9.26,3.826l17.595,17.5a13.2,13.2,0,0,1,3.883,9.355V393.8" transform="translate(-2367.925 -936.611)" fill="#fff"/>
    <path id="Path_101389_-_Outline" data-name="Path 101389 - Outline" d="M322.85,468.476H245.3a13.84,13.84,0,0,1-13.822-13.855V352.942A13.84,13.84,0,0,1,245.3,339.089h58.759a15.006,15.006,0,0,1,10.581,4.372l17.594,17.5a15.07,15.07,0,0,1,4.436,10.684v22.024a1.873,1.873,0,0,1-3.745,0V371.643a11.325,11.325,0,0,0-3.333-8.028L312,346.115a11.261,11.261,0,0,0-7.94-3.281H245.3a10.1,10.1,0,0,0-10.077,10.105V454.623a10.1,10.1,0,0,0,10.08,10.108h77.542a10.1,10.1,0,0,0,10.077-10.106V420.959a1.873,1.873,0,0,1,3.745,0v33.664a13.84,13.84,0,0,1-13.819,13.853Z" transform="translate(-2367.798 -936.483)" fill="#cacaca"/>
    <path id="Path_102293" data-name="Path 102293" d="M205.7,250.541c-3.839,6.07-7.62,9.9-9.831,9.9a1.476,1.476,0,0,1-1.491-1.733c.419-2.174,4.8-5.308,11.32-8.17Zm18.46-8.676c-1.651.339-3.355.733-5.083,1.181-1.241.323-2.5.675-3.762,1.051.67-1.344,1.285-2.675,1.82-3.94.706-1.673,1.37-3.345,1.98-4.983.535.824,1.089,1.626,1.655,2.4a48.059,48.059,0,0,0,3.524,4.263Zm-8.529-28.878a1.592,1.592,0,0,1,1.328-.843c1.455,0,1.77,1.72,1.77,3.161a38.761,38.761,0,0,1-1.9,9.992c-2.441-6.343-2.1-10.788-1.194-12.311Zm27.328,33.144c-.212,1.08-1.35,1.779-2.909,1.779a5.651,5.651,0,0,1-1.311-.16,21.568,21.568,0,0,1-8.333-4.138,42.072,42.072,0,0,1,6.165-.468,22.662,22.662,0,0,1,4.109.31c1.234.252,2.628.92,2.281,2.678Zm4.138-2.862c-1.82-1.916-5.3-2.891-10.347-2.891a55.63,55.63,0,0,0-8.357.712,41.047,41.047,0,0,1-4.813-5.513,50.359,50.359,0,0,1-3.011-4.593c1.779-5.488,2.678-9.945,2.678-13.246,0-4.056-1.637-8.393-6.232-8.393a4.638,4.638,0,0,0-3.847,2.229c-1.96,3.3-1.176,10.1,1.953,17.015-1.089,3.177-2.276,6.273-3.731,9.7a85.726,85.726,0,0,1-4.219,8.593c-4.686,1.853-14.65,6.344-15.6,11.306a4.16,4.16,0,0,0,1.363,3.954A6,6,0,0,0,197,263.562c6,0,11.984-8.152,16.01-15.168,2.287-.764,4.624-1.457,6.95-2.06,2.55-.664,5.017-1.207,7.341-1.612,6.353,5.44,12,6.264,14.832,6.264,3.889,0,5.343-1.653,5.873-3.045a4.6,4.6,0,0,0-.909-4.671Z" transform="translate(-2303.573 -771.995)" fill="#fa0f00" fill-rule="evenodd"/>
    <path id="Union_2" data-name="Union 2" d="M37.328,27.473a1.872,1.872,0,0,1-.155-2.643l8.141-9.159H1.872a1.873,1.873,0,0,1,0-3.746H44.592L37.14,3.079A1.872,1.872,0,0,1,40,.666l10.022,11.9a1.867,1.867,0,0,1,.441.935h0c0,.015,0,.031.007.047l0,.013v.006l0,.018v0l0,.019v0a1.872,1.872,0,0,1,.01.188h0q0,.044,0,.087a1.874,1.874,0,0,1-.327,1.968L39.971,27.318a1.872,1.872,0,0,1-2.643.155Z" transform="translate(-2042.933 -543.094)" fill="#cacaca"/>
    <path id="document_shadow" data-name="document shadow" d="M9.612,0h106.3a9.813,9.813,0,0,1,9.61,10V89.6a9.813,9.813,0,0,1-9.61,10.006H9.612A9.813,9.813,0,0,1,0,89.6V10A9.813,9.813,0,0,1,9.612,0Z" transform="translate(-1867.871 -582.009) rotate(90)" fill="#fee"/>
    <g id="Group_158366" data-name="Group 158366" transform="translate(-1951.517 -599.35)">
      <path id="Path_101375-5" data-name="Path 101375" d="M0,114.484V12.067A12.054,12.054,0,0,1,12.037,0H71.218a13.228,13.228,0,0,1,9.327,3.854L98.262,21.481a13.3,13.3,0,0,1,3.912,9.422v83.581A12.054,12.054,0,0,1,90.137,126.55h-78.1A12.054,12.054,0,0,1,0,114.484Z" transform="translate(1.873 1.873)" fill="#eeeefc"/>
      <path id="Path_101375_-_Outline" data-name="Path 101375 - Outline" d="M90.012,128.3h-78.1A13.926,13.926,0,0,1-2,114.354V11.939A13.926,13.926,0,0,1,11.907-2H71.09A15.1,15.1,0,0,1,81.739,2.4L99.455,20.026a15.168,15.168,0,0,1,4.464,10.75v83.581A13.926,13.926,0,0,1,90.012,128.3ZM11.909,1.745A10.181,10.181,0,0,0,1.745,11.937V114.356A10.181,10.181,0,0,0,11.912,124.55H90.007a10.181,10.181,0,0,0,10.167-10.192V30.775a11.423,11.423,0,0,0-3.361-8.1L79.1,5.054a11.355,11.355,0,0,0-8.007-3.309Z" transform="translate(2 2)" fill="#5c5ce0"/>
    </g>
    <g id="Group_155518" data-name="Group 155518" transform="translate(-1841.807 -457.218) rotate(-1)">
      <path id="Line_6847" data-name="Line 6847" d="M1.4,5.493A1.4,1.4,0,0,1,0,4.089V1.4a1.4,1.4,0,0,1,2.809,0V4.089A1.4,1.4,0,0,1,1.4,5.493Z" transform="translate(5.487)" fill="#73c0ef"/>
      <path id="Line_6848" data-name="Line 6848" d="M1.4,5.493A1.4,1.4,0,0,1,0,4.089V1.4a1.4,1.4,0,0,1,2.809,0V4.089A1.4,1.4,0,0,1,1.4,5.493Z" transform="translate(5.487 8.289)" fill="#73c0ef"/>
      <path id="Line_6850" data-name="Line 6850" d="M1.4,5.493A1.4,1.4,0,0,1,0,4.089V1.4a1.4,1.4,0,0,1,2.809,0V4.089A1.4,1.4,0,0,1,1.4,5.493Z" transform="translate(13.782 5.487) rotate(90)" fill="#73c0ef"/>
      <path id="Line_6849" data-name="Line 6849" d="M1.4,5.493A1.4,1.4,0,0,1,0,4.089V1.4a1.4,1.4,0,0,1,2.809,0V4.089A1.4,1.4,0,0,1,1.4,5.493Z" transform="translate(5.493 5.487) rotate(90)" fill="#73c0ef"/>
    </g>
    <g id="Group_155517" data-name="Group 155517" transform="translate(-1975.716 -612.445)">
      <path id="Line_6847-2" data-name="Line 6847" d="M-.1,6.566a1.4,1.4,0,0,1-1.4-1.4V-.1A1.4,1.4,0,0,1-.1-1.5a1.4,1.4,0,0,1,1.4,1.4V5.162A1.4,1.4,0,0,1-.1,6.566Z" transform="translate(9.97 1.5)" fill="#fc6768"/>
      <path id="Line_6848-2" data-name="Line 6848" d="M-.1,6.566a1.4,1.4,0,0,1-1.4-1.4V-.1A1.4,1.4,0,0,1-.1-1.5a1.4,1.4,0,0,1,1.4,1.4V5.162A1.4,1.4,0,0,1-.1,6.566Z" transform="translate(9.97 13.184)" fill="#fc6768"/>
      <path id="Line_6850-2" data-name="Line 6850" d="M1.4,8.066A1.4,1.4,0,0,1,0,6.662V1.4a1.4,1.4,0,0,1,2.809,0V6.662A1.4,1.4,0,0,1,1.4,8.066Z" transform="translate(19.75 8.47) rotate(90)" fill="#fc6768"/>
      <path id="Line_6849-2" data-name="Line 6849" d="M1.4,8.066A1.4,1.4,0,0,1,0,6.662V1.4a1.4,1.4,0,0,1,2.809,0V6.662A1.4,1.4,0,0,1,1.4,8.066Z" transform="translate(8.066 8.47) rotate(90)" fill="#fc6768"/>
    </g>
    <g id="Group_155519" data-name="Group 155519" transform="translate(-1949.235 -615.152)">
      <path id="Line_6847-3" data-name="Line 6847" d="M-.1,3.437a1.4,1.4,0,0,1-1.4-1.4V-.1A1.4,1.4,0,0,1-.1-1.5a1.4,1.4,0,0,1,1.4,1.4V2.033A1.4,1.4,0,0,1-.1,3.437Z" transform="translate(5.849 1.5)" fill="#b5e18f"/>
      <path id="Line_6848-3" data-name="Line 6848" d="M-.1,3.437a1.4,1.4,0,0,1-1.4-1.4V-.1A1.4,1.4,0,0,1-.1-1.5a1.4,1.4,0,0,1,1.4,1.4V2.033A1.4,1.4,0,0,1-.1,3.437Z" transform="translate(5.849 8.071)" fill="#b5e18f"/>
      <path id="Line_6850-3" data-name="Line 6850" d="M1.4,4.937A1.4,1.4,0,0,1,0,3.533V1.4a1.4,1.4,0,0,1,2.809,0V3.533A1.4,1.4,0,0,1,1.4,4.937Z" transform="translate(11.507 4.349) rotate(90)" fill="#b5e18f"/>
      <path id="Line_6849-3" data-name="Line 6849" d="M1.4,4.937A1.4,1.4,0,0,1,0,3.533V1.4a1.4,1.4,0,0,1,2.809,0V3.533A1.4,1.4,0,0,1,1.4,4.937Z" transform="translate(4.937 4.349) rotate(90)" fill="#b5e18f"/>
    </g>
    <g id="done" transform="translate(-1872.032 -497.057)">
      <g id="Ellipse_10671" data-name="Ellipse 10671" transform="translate(0 0)" fill="#fff" stroke="#fff" stroke-width="1">
        <ellipse cx="17.213" cy="17.807" rx="17.213" ry="17.807" stroke="none"/>
        <ellipse cx="17.213" cy="17.807" rx="16.713" ry="17.307" fill="none"/>
      </g>
      <g id="Group_159954" data-name="Group 159954" transform="translate(2.849 3.681)">
        <rect id="Canvas" width="27.152" height="29.024" transform="translate(0 0)" fill="#ff13dc" opacity="0"/>
        <path id="Path_102659" data-name="Path 102659" d="M14.569,1A13.569,13.569,0,1,0,28.138,14.569,13.57,13.57,0,0,0,14.569,1Zm9.045,7.7L12.891,22.491a1.022,1.022,0,0,1-.742.391h-.062a1.018,1.018,0,0,1-.72-.3l-6.6-6.61a1.018,1.018,0,0,1,0-1.439h0l1.124-1.124a1.018,1.018,0,0,1,1.439,0h0l4.531,4.534L20.771,6.489A1.018,1.018,0,0,1,22.2,6.31h0l1.237.963A1.018,1.018,0,0,1,23.615,8.7Z" transform="translate(-0.057 -0.784)" fill="#55d369"/>
      </g>
    </g>
    <path id="Path_102861" data-name="Path 102861" d="M205.7,250.541c-3.839,6.07-7.62,9.9-9.831,9.9a1.476,1.476,0,0,1-1.491-1.733c.419-2.174,4.8-5.308,11.32-8.17Zm18.46-8.676c-1.651.339-3.355.733-5.083,1.181-1.241.323-2.5.675-3.762,1.051.67-1.344,1.285-2.675,1.82-3.94.706-1.673,1.37-3.345,1.98-4.983.535.824,1.089,1.626,1.655,2.4a48.059,48.059,0,0,0,3.524,4.263Zm-8.529-28.878a1.592,1.592,0,0,1,1.328-.843c1.455,0,1.77,1.72,1.77,3.161a38.761,38.761,0,0,1-1.9,9.992c-2.441-6.343-2.1-10.788-1.194-12.311Zm27.328,33.144c-.212,1.08-1.35,1.779-2.909,1.779a5.651,5.651,0,0,1-1.311-.16,21.568,21.568,0,0,1-8.333-4.138,42.072,42.072,0,0,1,6.165-.468,22.662,22.662,0,0,1,4.109.31c1.234.252,2.628.92,2.281,2.678Zm4.138-2.862c-1.82-1.916-5.3-2.891-10.347-2.891a55.63,55.63,0,0,0-8.357.712,41.047,41.047,0,0,1-4.813-5.513,50.359,50.359,0,0,1-3.011-4.593c1.779-5.488,2.678-9.945,2.678-13.246,0-4.056-1.637-8.393-6.232-8.393a4.638,4.638,0,0,0-3.847,2.229c-1.96,3.3-1.176,10.1,1.953,17.015-1.089,3.177-2.276,6.273-3.731,9.7a85.726,85.726,0,0,1-4.219,8.593c-4.686,1.853-14.65,6.344-15.6,11.306a4.16,4.16,0,0,0,1.363,3.954A6,6,0,0,0,197,263.562c6,0,11.984-8.152,16.01-15.168,2.287-.764,4.624-1.457,6.95-2.06,2.55-.664,5.017-1.207,7.341-1.612,6.353,5.44,12,6.264,14.832,6.264,3.889,0,5.343-1.653,5.873-3.045a4.6,4.6,0,0,0-.909-4.671Z" transform="translate(-2117.967 -775.109)" fill="#fa0f00" fill-rule="evenodd"/>
    <g id="Group_158363" data-name="Group 158363" transform="translate(-2059.357 -497.004)">
      <g id="Ellipse_10670" data-name="Ellipse 10670" transform="translate(0 0)" fill="#fff" stroke="#fff" stroke-width="1">
        <ellipse cx="18.304" cy="18.716" rx="18.304" ry="18.716" stroke="none"/>
        <ellipse cx="18.304" cy="18.716" rx="17.804" ry="18.216" fill="none"/>
      </g>
      <path id="Path_101403" data-name="Path 101403" d="M23.384,9.05A14.334,14.334,0,1,1,9.05,23.384,14.334,14.334,0,0,1,23.384,9.05ZM15.332,24.19a.805.805,0,0,0,.805.805h5.636v5.635a.805.805,0,0,0,.805.805h1.61a.805.805,0,0,0,.805-.805V25h5.636a.805.805,0,0,0,.805-.805V22.579a.805.805,0,0,0-.805-.805H25V16.137a.805.805,0,0,0-.805-.805H22.579a.805.805,0,0,0-.805.805v5.637H16.137a.805.805,0,0,0-.805.805Z" transform="translate(-5.399 -4.64)" fill="#1473e6"/>
    </g>
  </g>
  <rect id="Rectangle_248039" data-name="Rectangle 248039" width="400" height="240" opacity="0"/>
</svg>
